<?xml version="1.0" standalone="no"?>
<!DOCTYPE svg PUBLIC "-//W3C//DTD SVG 20010904//EN"
 "http://www.w3.org/TR/2001/REC-SVG-20010904/DTD/svg10.dtd">
<svg version="1.0" xmlns="http://www.w3.org/2000/svg"
 width="46.000000pt" height="46.000000pt" viewBox="0 0 46.000000 46.000000"
 preserveAspectRatio="xMidYMid meet">
<metadata>
Created by potrace 1.16, written by Peter Selinger 2001-2019
</metadata>
<g transform="translate(0.000000,46.000000) scale(0.100000,-0.100000)"
fill="#000000" stroke="none">
<path d="M202 398 c-15 -15 -16 -38 -2 -38 6 0 7 -7 2 -17 -56 -113 -71 -147
-65 -156 5 -8 45 74 67 136 4 13 12 16 26 12 11 -4 20 -2 20 4 0 6 -5 11 -11
11 -5 0 -7 5 -4 10 11 18 25 0 25 -33 0 -18 9 -51 20 -75 12 -27 17 -53 13
-72 -4 -22 -2 -30 9 -30 44 0 50 58 12 114 -14 21 -29 57 -31 80 -3 22 -10 47
-16 54 -12 15 -49 16 -65 0z"/>
<path d="M175 140 c3 -5 8 -10 11 -10 2 0 4 5 4 10 0 6 -5 10 -11 10 -5 0 -7
-4 -4 -10z"/>
<path d="M267 133 c-5 -7 -21 -13 -38 -13 -42 0 -36 -17 9 -22 44 -6 45 -6 40
24 -2 16 -6 19 -11 11z"/>
</g>
</svg>
