<?xml version="1.0" standalone="no"?>
<!DOCTYPE svg PUBLIC "-//W3C//DTD SVG 20010904//EN"
 "http://www.w3.org/TR/2001/REC-SVG-20010904/DTD/svg10.dtd">
<svg version="1.0" xmlns="http://www.w3.org/2000/svg"
 width="76.000000pt" height="76.000000pt" viewBox="0 0 76.000000 76.000000"
 preserveAspectRatio="xMidYMid meet">
<metadata>
Created by potrace 1.16, written by Peter Selinger 2001-2019
</metadata>
<g transform="translate(0.000000,76.000000) scale(0.100000,-0.100000)"
fill="#000000" stroke="none">
<path d="M335 655 c-27 -26 -37 -87 -12 -66 14 11 27 5 27 -12 0 -6 -3 -7 -7
-4 -12 13 -33 -16 -33 -46 0 -18 -16 -58 -40 -97 -35 -58 -67 -148 -45 -128 5
4 13 4 19 -1 8 -7 11 2 9 32 -2 23 0 36 3 28 9 -20 67 117 68 160 1 20 6 36
11 36 32 0 43 5 48 23 3 12 14 20 25 20 22 0 34 -20 22 -39 -10 -17 6 -84 36
-150 26 -58 30 -91 13 -108 -8 -8 -8 -17 0 -32 15 -28 32 -27 61 4 34 36 24
98 -29 177 -36 54 -41 68 -41 120 0 49 -4 63 -25 83 -15 16 -36 25 -55 25 -19
0 -40 -9 -55 -25z"/>
<path d="M390 565 c0 -9 5 -15 11 -13 6 2 11 8 11 13 0 5 -5 11 -11 13 -6 2
-11 -4 -11 -13z"/>
<path d="M279 252 c12 -18 27 -32 32 -32 18 0 9 17 -23 40 l-32 23 23 -31z"/>
<path d="M435 213 c-14 -10 -36 -13 -71 -11 -49 4 -50 4 -40 -18 9 -18 21 -23
71 -27 33 -2 61 -3 63 -2 2 2 2 19 0 38 -3 34 -4 35 -23 20z"/>
</g>
</svg>
