<?xml version="1.0" standalone="no"?>
<!DOCTYPE svg PUBLIC "-//W3C//DTD SVG 20010904//EN"
 "http://www.w3.org/TR/2001/REC-SVG-20010904/DTD/svg10.dtd">
<svg version="1.0" xmlns="http://www.w3.org/2000/svg"
 width="36.000000pt" height="36.000000pt" viewBox="0 0 36.000000 36.000000"
 preserveAspectRatio="xMidYMid meet">
<metadata>
Created by potrace 1.16, written by Peter Selinger 2001-2019
</metadata>
<g transform="translate(0.000000,36.000000) scale(0.100000,-0.100000)"
fill="#000000" stroke="none">
<path d="M153 304 c-4 -11 -1 -20 6 -22 11 -4 11 -6 0 -13 -10 -6 -6 -9 12 -9
22 0 29 -8 44 -46 9 -25 15 -54 12 -65 -7 -26 11 -35 30 -16 15 14 14 21 -10
69 -15 29 -28 67 -29 83 -2 24 -8 31 -31 33 -19 2 -29 -2 -34 -14z m52 -24 c3
-5 -1 -10 -10 -10 -9 0 -13 5 -10 10 3 6 8 10 10 10 2 0 7 -4 10 -10z"/>
<path d="M127 201 c-9 -16 -17 -37 -17 -48 0 -10 9 2 20 26 24 51 22 63 -3 22z"/>
<path d="M142 100 c7 -11 20 -20 30 -20 9 0 23 -3 32 -6 11 -4 16 0 16 15 0
19 -3 19 -26 9 -22 -10 -28 -10 -39 5 -17 24 -28 21 -13 -3z"/>
</g>
</svg>
